<?xml version="1.0" encoding="UTF-8" standalone="no"?>
<!DOCTYPE svg PUBLIC "-//W3C//DTD SVG 1.1//EN"
 "http://www.w3.org/Graphics/SVG/1.1/DTD/svg11.dtd">
<!-- Generated by graphviz version 2.40.1 (20161225.0304)
 -->
<!-- Title: %3 Pages: 1 -->
<svg width="1720pt" height="392pt"
 viewBox="0.00 0.00 1720.47 392.00" xmlns="http://www.w3.org/2000/svg" xmlns:xlink="http://www.w3.org/1999/xlink">
<g id="graph0" class="graph" transform="scale(1 1) rotate(0) translate(4 388)">
<title>%3</title>
<polygon fill="#ffffff" stroke="transparent" points="-4,4 -4,-388 1716.4706,-388 1716.4706,4 -4,4"/>
<!-- OqozGZXYb1Y -->
<g id="node1" class="node">
<title>OqozGZXYb1Y</title>
<ellipse fill="none" stroke="#000000" cx="941.4354" cy="-366" rx="221.7607" ry="18"/>
<text text-anchor="middle" x="941.4354" y="-362.3" font-family="Times,serif" font-size="14.00" fill="#000000">Choose Your Adventure | Series 1: Escape | START HERE</text>
</g>
<!-- &#45;5gW4io5h&#45;w -->
<g id="node2" class="node">
<title>&#45;5gW4io5h&#45;w</title>
<ellipse fill="none" stroke="#000000" cx="635.4354" cy="-279" rx="192.2659" ry="18"/>
<text text-anchor="middle" x="635.4354" y="-275.3" font-family="Times,serif" font-size="14.00" fill="#000000">Plasma Phaser (Gun on the Left) | Series 1: Escape</text>
</g>
<!-- OqozGZXYb1Y&#45;&gt;&#45;5gW4io5h&#45;w -->
<g id="edge1" class="edge">
<title>OqozGZXYb1Y&#45;&gt;&#45;5gW4io5h&#45;w</title>
<path fill="none" stroke="#000000" d="M880.2472,-348.6033C829.7582,-334.2486 758.1022,-313.8759 705.3546,-298.879"/>
<polygon fill="#000000" stroke="#000000" points="706.3109,-295.5122 695.7349,-296.144 704.3965,-302.2454 706.3109,-295.5122"/>
<text text-anchor="middle" x="810.9354" y="-318.8" font-family="Times,serif" font-size="14.00" fill="#000000">0</text>
</g>
<!-- 7Nbi7PoSGaM -->
<g id="node3" class="node">
<title>7Nbi7PoSGaM</title>
<ellipse fill="none" stroke="#000000" cx="1246.4354" cy="-279" rx="196.0654" ry="18"/>
<text text-anchor="middle" x="1246.4354" y="-275.3" font-family="Times,serif" font-size="14.00" fill="#000000">Fusion Blaster (Gun on the Right) | Series 1: Escape</text>
</g>
<!-- OqozGZXYb1Y&#45;&gt;7Nbi7PoSGaM -->
<g id="edge2" class="edge">
<title>OqozGZXYb1Y&#45;&gt;7Nbi7PoSGaM</title>
<path fill="none" stroke="#000000" d="M1002.4237,-348.6033C1052.6433,-334.2784 1123.8732,-313.9604 1176.4172,-298.9724"/>
<polygon fill="#000000" stroke="#000000" points="1177.6766,-302.2528 1186.333,-296.144 1175.7565,-295.5213 1177.6766,-302.2528"/>
<text text-anchor="middle" x="1115.9354" y="-318.8" font-family="Times,serif" font-size="14.00" fill="#000000">1</text>
</g>
<!-- TNEhFCRyL5o -->
<g id="node6" class="node">
<title>TNEhFCRyL5o</title>
<ellipse fill="none" stroke="#000000" cx="718.4354" cy="-192" rx="144.0747" ry="18"/>
<text text-anchor="middle" x="718.4354" y="-188.3" font-family="Times,serif" font-size="14.00" fill="#000000">Make A Run For It | Series 1: Escape</text>
</g>
<!-- &#45;5gW4io5h&#45;w&#45;&gt;TNEhFCRyL5o -->
<g id="edge5" class="edge">
<title>&#45;5gW4io5h&#45;w&#45;&gt;TNEhFCRyL5o</title>
<path fill="none" stroke="#000000" d="M652.6331,-260.9735C664.6522,-248.3752 680.8703,-231.3755 694.1979,-217.4055"/>
<polygon fill="#000000" stroke="#000000" points="696.8894,-219.6548 701.2598,-210.0034 691.8246,-214.8228 696.8894,-219.6548"/>
<text text-anchor="middle" x="685.9354" y="-231.8" font-family="Times,serif" font-size="14.00" fill="#000000">0</text>
</g>
<!-- xK3rWr5J4Bk -->
<g id="node7" class="node">
<title>xK3rWr5J4Bk</title>
<ellipse fill="none" stroke="#000000" cx="418.4354" cy="-192" rx="137.5759" ry="18"/>
<text text-anchor="middle" x="418.4354" y="-188.3" font-family="Times,serif" font-size="14.00" fill="#000000">Step Out &amp; Fight | Series 1: Escape</text>
</g>
<!-- &#45;5gW4io5h&#45;w&#45;&gt;xK3rWr5J4Bk -->
<g id="edge6" class="edge">
<title>&#45;5gW4io5h&#45;w&#45;&gt;xK3rWr5J4Bk</title>
<path fill="none" stroke="#000000" d="M591.5222,-261.3943C556.621,-247.4016 507.7014,-227.7887 470.7693,-212.9818"/>
<polygon fill="#000000" stroke="#000000" points="471.7583,-209.6076 461.1741,-209.1348 469.1534,-216.1048 471.7583,-209.6076"/>
<text text-anchor="middle" x="543.9354" y="-231.8" font-family="Times,serif" font-size="14.00" fill="#000000">1</text>
</g>
<!-- ah_sAJPlNdQ -->
<g id="node4" class="node">
<title>ah_sAJPlNdQ</title>
<ellipse fill="none" stroke="#000000" cx="1205.4354" cy="-192" rx="154.8728" ry="18"/>
<text text-anchor="middle" x="1205.4354" y="-188.3" font-family="Times,serif" font-size="14.00" fill="#000000">Proceed With Caution | Series 1: Escape</text>
</g>
<!-- 7Nbi7PoSGaM&#45;&gt;ah_sAJPlNdQ -->
<g id="edge3" class="edge">
<title>7Nbi7PoSGaM&#45;&gt;ah_sAJPlNdQ</title>
<path fill="none" stroke="#000000" d="M1237.9402,-260.9735C1232.2779,-248.9585 1224.729,-232.9401 1218.3313,-219.3646"/>
<polygon fill="#000000" stroke="#000000" points="1221.3488,-217.5571 1213.9198,-210.0034 1215.0167,-220.5413 1221.3488,-217.5571"/>
<text text-anchor="middle" x="1231.9354" y="-231.8" font-family="Times,serif" font-size="14.00" fill="#000000">0</text>
</g>
<!-- blwsg&#45;QkR&#45;E -->
<g id="node5" class="node">
<title>blwsg&#45;QkR&#45;E</title>
<ellipse fill="none" stroke="#000000" cx="1545.4354" cy="-192" rx="167.0704" ry="18"/>
<text text-anchor="middle" x="1545.4354" y="-188.3" font-family="Times,serif" font-size="14.00" fill="#000000">Proceed With Aggression | Series 1: Escape</text>
</g>
<!-- 7Nbi7PoSGaM&#45;&gt;blwsg&#45;QkR&#45;E -->
<g id="edge4" class="edge">
<title>7Nbi7PoSGaM&#45;&gt;blwsg&#45;QkR&#45;E</title>
<path fill="none" stroke="#000000" d="M1305.5082,-261.8116C1354.993,-247.413 1425.6506,-226.8538 1477.4744,-211.7746"/>
<polygon fill="#000000" stroke="#000000" points="1478.625,-215.085 1487.249,-208.9305 1476.6693,-208.3638 1478.625,-215.085"/>
<text text-anchor="middle" x="1417.9354" y="-231.8" font-family="Times,serif" font-size="14.00" fill="#000000">1</text>
</g>
<!-- sWeJk98qJ_0 -->
<g id="node8" class="node">
<title>sWeJk98qJ_0</title>
<ellipse fill="none" stroke="#000000" cx="1421.4354" cy="-105" rx="126.978" ry="18"/>
<text text-anchor="middle" x="1421.4354" y="-101.3" font-family="Times,serif" font-size="14.00" fill="#000000">Confront Boss | Series 1: Escape</text>
</g>
<!-- ah_sAJPlNdQ&#45;&gt;sWeJk98qJ_0 -->
<g id="edge8" class="edge">
<title>ah_sAJPlNdQ&#45;&gt;sWeJk98qJ_0</title>
<path fill="none" stroke="#000000" d="M1248.6271,-174.6033C1283.4356,-160.5833 1332.497,-140.8224 1369.4554,-125.9364"/>
<polygon fill="#000000" stroke="#000000" points="1371.0865,-129.0527 1379.0547,-122.07 1368.4712,-122.5596 1371.0865,-129.0527"/>
<text text-anchor="middle" x="1329.9354" y="-144.8" font-family="Times,serif" font-size="14.00" fill="#000000">0</text>
</g>
<!-- Z8aEgOsF2wc -->
<g id="node9" class="node">
<title>Z8aEgOsF2wc</title>
<ellipse fill="none" stroke="#000000" cx="1144.4354" cy="-105" rx="131.8766" ry="18"/>
<text text-anchor="middle" x="1144.4354" y="-101.3" font-family="Times,serif" font-size="14.00" fill="#000000">Run From Boss | Series 1: Escape</text>
</g>
<!-- ah_sAJPlNdQ&#45;&gt;Z8aEgOsF2wc -->
<g id="edge9" class="edge">
<title>ah_sAJPlNdQ&#45;&gt;Z8aEgOsF2wc</title>
<path fill="none" stroke="#000000" d="M1192.7962,-173.9735C1184.2082,-161.7252 1172.7033,-145.3165 1163.0695,-131.5766"/>
<polygon fill="#000000" stroke="#000000" points="1165.6652,-129.1819 1157.0585,-123.0034 1159.9337,-133.2006 1165.6652,-129.1819"/>
<text text-anchor="middle" x="1182.9354" y="-144.8" font-family="Times,serif" font-size="14.00" fill="#000000">1</text>
</g>
<!-- blwsg&#45;QkR&#45;E&#45;&gt;OqozGZXYb1Y -->
<g id="edge7" class="edge">
<title>blwsg&#45;QkR&#45;E&#45;&gt;OqozGZXYb1Y</title>
<path fill="none" stroke="#000000" d="M1535.036,-210.0302C1519.9853,-234.2844 1489.6959,-276.7127 1451.4354,-297 1396.4422,-326.1598 1250.2342,-344.0178 1128.393,-354.2385"/>
<polygon fill="#000000" stroke="#000000" points="1127.8554,-350.7709 1118.1776,-355.0825 1128.4318,-357.7471 1127.8554,-350.7709"/>
<text text-anchor="middle" x="1499.9354" y="-275.3" font-family="Times,serif" font-size="14.00" fill="#000000">0</text>
</g>
<!-- TNEhFCRyL5o&#45;&gt;OqozGZXYb1Y -->
<g id="edge10" class="edge">
<title>TNEhFCRyL5o&#45;&gt;OqozGZXYb1Y</title>
<path fill="none" stroke="#000000" d="M757.3788,-209.3698C781.8466,-221.5223 813.0824,-239.4156 836.4354,-261 863.8693,-286.3562 857.439,-304.1786 884.4354,-330 889.0425,-334.4066 894.2695,-338.5677 899.6441,-342.3884"/>
<polygon fill="#000000" stroke="#000000" points="897.8909,-345.427 908.1434,-348.0984 901.7945,-339.6165 897.8909,-345.427"/>
<text text-anchor="middle" x="864.9354" y="-275.3" font-family="Times,serif" font-size="14.00" fill="#000000">0</text>
</g>
<!-- llqMHEzebBc -->
<g id="node10" class="node">
<title>llqMHEzebBc</title>
<ellipse fill="none" stroke="#000000" cx="388.4354" cy="-105" rx="172.4698" ry="18"/>
<text text-anchor="middle" x="388.4354" y="-101.3" font-family="Times,serif" font-size="14.00" fill="#000000">Embrace The Fear &amp; Fight | Series 1: Escape</text>
</g>
<!-- xK3rWr5J4Bk&#45;&gt;llqMHEzebBc -->
<g id="edge11" class="edge">
<title>xK3rWr5J4Bk&#45;&gt;llqMHEzebBc</title>
<path fill="none" stroke="#000000" d="M412.2194,-173.9735C408.1165,-162.0751 402.6598,-146.2508 398.008,-132.7606"/>
<polygon fill="#000000" stroke="#000000" points="401.2122,-131.3161 394.6435,-123.0034 394.5946,-133.5981 401.2122,-131.3161"/>
<text text-anchor="middle" x="408.9354" y="-144.8" font-family="Times,serif" font-size="14.00" fill="#000000">0</text>
</g>
<!-- wnF0_9Uqa_U -->
<g id="node11" class="node">
<title>wnF0_9Uqa_U</title>
<ellipse fill="none" stroke="#000000" cx="724.4354" cy="-105" rx="146.4744" ry="18"/>
<text text-anchor="middle" x="724.4354" y="-101.3" font-family="Times,serif" font-size="14.00" fill="#000000">Stealth Down Stairs | Series 1: Escape</text>
</g>
<!-- xK3rWr5J4Bk&#45;&gt;wnF0_9Uqa_U -->
<g id="edge12" class="edge">
<title>xK3rWr5J4Bk&#45;&gt;wnF0_9Uqa_U</title>
<path fill="none" stroke="#000000" d="M475.9917,-175.636C527.1681,-161.0858 602.065,-139.7916 656.2339,-124.3906"/>
<polygon fill="#000000" stroke="#000000" points="657.4352,-127.6879 666.0968,-121.5865 655.5209,-120.9547 657.4352,-127.6879"/>
<text text-anchor="middle" x="593.9354" y="-144.8" font-family="Times,serif" font-size="14.00" fill="#000000">1</text>
</g>
<!-- w6bbmHG3Qjs -->
<g id="node12" class="node">
<title>w6bbmHG3Qjs</title>
<ellipse fill="none" stroke="#000000" cx="1450.4354" cy="-18" rx="149.4735" ry="18"/>
<text text-anchor="middle" x="1450.4354" y="-14.3" font-family="Times,serif" font-size="14.00" fill="#000000">Continue Down Hall | Series 1: Escape</text>
</g>
<!-- sWeJk98qJ_0&#45;&gt;w6bbmHG3Qjs -->
<g id="edge14" class="edge">
<title>sWeJk98qJ_0&#45;&gt;w6bbmHG3Qjs</title>
<path fill="none" stroke="#000000" d="M1427.4442,-86.9735C1431.4104,-75.0751 1436.6852,-59.2508 1441.1819,-45.7606"/>
<polygon fill="#000000" stroke="#000000" points="1444.5923,-46.597 1444.4343,-36.0034 1437.9516,-44.3834 1444.5923,-46.597"/>
<text text-anchor="middle" x="1441.9354" y="-57.8" font-family="Times,serif" font-size="14.00" fill="#000000">0</text>
</g>
<!-- miCB3H7A0tc -->
<g id="node13" class="node">
<title>miCB3H7A0tc</title>
<ellipse fill="none" stroke="#000000" cx="1164.4354" cy="-18" rx="118.8789" ry="18"/>
<text text-anchor="middle" x="1164.4354" y="-14.3" font-family="Times,serif" font-size="14.00" fill="#000000">Enter Room | Series 1: Escape</text>
</g>
<!-- sWeJk98qJ_0&#45;&gt;miCB3H7A0tc -->
<g id="edge15" class="edge">
<title>sWeJk98qJ_0&#45;&gt;miCB3H7A0tc</title>
<path fill="none" stroke="#000000" d="M1372.1873,-88.3285C1329.5502,-73.8949 1267.8146,-52.9961 1222.7236,-37.7318"/>
<polygon fill="#000000" stroke="#000000" points="1223.6751,-34.3589 1213.0808,-34.4675 1221.4305,-40.9892 1223.6751,-34.3589"/>
<text text-anchor="middle" x="1311.9354" y="-57.8" font-family="Times,serif" font-size="14.00" fill="#000000">1</text>
</g>
<!-- Z8aEgOsF2wc&#45;&gt;OqozGZXYb1Y -->
<g id="edge13" class="edge">
<title>Z8aEgOsF2wc&#45;&gt;OqozGZXYb1Y</title>
<path fill="none" stroke="#000000" d="M1105.783,-122.3327C1083.9044,-134.0003 1057.7384,-151.3921 1041.4354,-174 999.3698,-232.3338 1041.2824,-272.2377 998.4354,-330 995.1232,-334.4652 991.0778,-338.5127 986.6852,-342.144"/>
<polygon fill="#000000" stroke="#000000" points="984.4297,-339.4593 978.4872,-348.2307 988.6026,-345.0796 984.4297,-339.4593"/>
<text text-anchor="middle" x="1024.9354" y="-231.8" font-family="Times,serif" font-size="14.00" fill="#000000">0</text>
</g>
<!-- p21Q82tvLzY -->
<g id="node16" class="node">
<title>p21Q82tvLzY</title>
<ellipse fill="none" stroke="#000000" cx="484.4354" cy="-18" rx="137.5759" ry="18"/>
<text text-anchor="middle" x="484.4354" y="-14.3" font-family="Times,serif" font-size="14.00" fill="#000000">Continue Straight | Series 1: Escape</text>
</g>
<!-- llqMHEzebBc&#45;&gt;p21Q82tvLzY -->
<g id="edge18" class="edge">
<title>llqMHEzebBc&#45;&gt;p21Q82tvLzY</title>
<path fill="none" stroke="#000000" d="M408.3267,-86.9735C422.357,-74.2586 441.3344,-57.0603 456.829,-43.0183"/>
<polygon fill="#000000" stroke="#000000" points="459.5101,-45.3121 464.5696,-36.0034 454.8094,-40.1251 459.5101,-45.3121"/>
<text text-anchor="middle" x="445.9354" y="-57.8" font-family="Times,serif" font-size="14.00" fill="#000000">0</text>
</g>
<!-- eQkbDqGeCVk -->
<g id="node17" class="node">
<title>eQkbDqGeCVk</title>
<ellipse fill="none" stroke="#000000" cx="164.4354" cy="-18" rx="164.3708" ry="18"/>
<text text-anchor="middle" x="164.4354" y="-14.3" font-family="Times,serif" font-size="14.00" fill="#000000">Go Down Right Hallway | Series 1: Escape</text>
</g>
<!-- llqMHEzebBc&#45;&gt;eQkbDqGeCVk -->
<g id="edge19" class="edge">
<title>llqMHEzebBc&#45;&gt;eQkbDqGeCVk</title>
<path fill="none" stroke="#000000" d="M343.644,-87.6033C307.6281,-73.615 256.8983,-53.9119 218.6013,-39.0376"/>
<polygon fill="#000000" stroke="#000000" points="219.7379,-35.7244 209.1492,-35.3665 217.2036,-42.2496 219.7379,-35.7244"/>
<text text-anchor="middle" x="293.9354" y="-57.8" font-family="Times,serif" font-size="14.00" fill="#000000">1</text>
</g>
<!-- Nw&#45;d2Ij4kSQ -->
<g id="node14" class="node">
<title>Nw&#45;d2Ij4kSQ</title>
<ellipse fill="none" stroke="#000000" cx="734.4354" cy="-18" rx="94.4839" ry="18"/>
<text text-anchor="middle" x="734.4354" y="-14.3" font-family="Times,serif" font-size="14.00" fill="#000000">Fight | Series 1: Escape</text>
</g>
<!-- wnF0_9Uqa_U&#45;&gt;Nw&#45;d2Ij4kSQ -->
<g id="edge16" class="edge">
<title>wnF0_9Uqa_U&#45;&gt;Nw&#45;d2Ij4kSQ</title>
<path fill="none" stroke="#000000" d="M726.5074,-86.9735C727.8616,-75.1918 729.6583,-59.5607 731.1988,-46.1581"/>
<polygon fill="#000000" stroke="#000000" points="734.7012,-46.3376 732.3661,-36.0034 727.747,-45.5383 734.7012,-46.3376"/>
<text text-anchor="middle" x="733.9354" y="-57.8" font-family="Times,serif" font-size="14.00" fill="#000000">0</text>
</g>
<!-- 1Jras0oFYUI -->
<g id="node15" class="node">
<title>1Jras0oFYUI</title>
<ellipse fill="none" stroke="#000000" cx="937.4354" cy="-18" rx="90.1842" ry="18"/>
<text text-anchor="middle" x="937.4354" y="-14.3" font-family="Times,serif" font-size="14.00" fill="#000000">Run | Series 1: Escape</text>
</g>
<!-- wnF0_9Uqa_U&#45;&gt;1Jras0oFYUI -->
<g id="edge17" class="edge">
<title>wnF0_9Uqa_U&#45;&gt;1Jras0oFYUI</title>
<path fill="none" stroke="#000000" d="M766.772,-87.7076C801.7423,-73.4239 851.4278,-53.1299 888.1765,-38.1198"/>
<polygon fill="#000000" stroke="#000000" points="889.7645,-41.252 897.6986,-34.2305 887.1176,-34.7717 889.7645,-41.252"/>
<text text-anchor="middle" x="847.9354" y="-57.8" font-family="Times,serif" font-size="14.00" fill="#000000">1</text>
</g>
<!-- miCB3H7A0tc&#45;&gt;OqozGZXYb1Y -->
<g id="edge20" class="edge">
<title>miCB3H7A0tc&#45;&gt;OqozGZXYb1Y</title>
<path fill="none" stroke="#000000" d="M1107.4823,-33.8131C1054.7479,-50.1904 984.4354,-77.233 984.4354,-105 984.4354,-279 984.4354,-279 984.4354,-279 984.4354,-300.8923 973.3575,-322.9744 962.4473,-339.4135"/>
<polygon fill="#000000" stroke="#000000" points="959.3516,-337.732 956.4747,-347.9288 965.0825,-341.7516 959.3516,-337.732"/>
<text text-anchor="middle" x="987.9354" y="-188.3" font-family="Times,serif" font-size="14.00" fill="#000000">0</text>
</g>
<!-- Nw&#45;d2Ij4kSQ&#45;&gt;OqozGZXYb1Y -->
<g id="edge21" class="edge">
<title>Nw&#45;d2Ij4kSQ&#45;&gt;OqozGZXYb1Y</title>
<path fill="none" stroke="#000000" d="M810.1947,-28.8951C853.1656,-39.8363 898.4354,-61.65 898.4354,-105 898.4354,-279 898.4354,-279 898.4354,-279 898.4354,-300.8923 909.5133,-322.9744 920.4235,-339.4135"/>
<polygon fill="#000000" stroke="#000000" points="917.7883,-341.7516 926.3961,-347.9288 923.5192,-337.732 917.7883,-341.7516"/>
<text text-anchor="middle" x="901.9354" y="-188.3" font-family="Times,serif" font-size="14.00" fill="#000000">0</text>
</g>
<!-- 1Jras0oFYUI&#45;&gt;OqozGZXYb1Y -->
<g id="edge23" class="edge">
<title>1Jras0oFYUI&#45;&gt;OqozGZXYb1Y</title>
<path fill="none" stroke="#000000" d="M938.7674,-36.3193C939.931,-53.9178 941.4354,-81.2614 941.4354,-105 941.4354,-279 941.4354,-279 941.4354,-279 941.4354,-298.4525 941.4354,-320.3516 941.4354,-337.3123"/>
<polygon fill="#000000" stroke="#000000" points="937.9355,-337.6694 941.4354,-347.6694 944.9355,-337.6695 937.9355,-337.6694"/>
<text text-anchor="middle" x="944.9354" y="-188.3" font-family="Times,serif" font-size="14.00" fill="#000000">0</text>
</g>
<!-- eQkbDqGeCVk&#45;&gt;OqozGZXYb1Y -->
<g id="edge22" class="edge">
<title>eQkbDqGeCVk&#45;&gt;OqozGZXYb1Y</title>
<path fill="none" stroke="#000000" d="M166.7663,-36.2962C168.8026,-53.8779 171.4354,-81.2098 171.4354,-105 171.4354,-279 171.4354,-279 171.4354,-279 171.4354,-334.1783 487.679,-354.3645 714.8282,-361.7469"/>
<polygon fill="#000000" stroke="#000000" points="714.792,-365.2474 724.8984,-362.0677 715.0149,-358.2509 714.792,-365.2474"/>
<text text-anchor="middle" x="174.9354" y="-188.3" font-family="Times,serif" font-size="14.00" fill="#000000">0</text>
</g>
</g>
</svg>
